Coordinates
version=1
nRows=12
nColumns=23
inDegrees=yes

Units are S.I. units (second, meters, Newtons, ...)
If the header above contains a line with 'inDegrees', this indicates whether rotational values are in degrees (yes) or radians (no).

endheader
time	pelvis_tilt	pelvis_list	pelvis_rotation	pelvis_tx	pelvis_ty	pelvis_tz	hip_flexion_r	hip_adduction_r	hip_rotation_r	knee_angle_r	knee_angle_r_beta	ankle_angle_r	subtalar_angle_r	mtp_angle_r	hip_flexion_l	hip_adduction_l	hip_rotation_l	knee_angle_l	knee_angle_l_beta	ankle_angle_l	subtalar_angle_l	mtp_angle_l
     15.00000000	      0.17009817	      4.25087529	     -1.25137012	      2.26779574	      1.06318515	      1.01533422	    -16.09961713	     -6.55256878	     -6.35932319	     32.03152197	      0.55905552	    -18.36123764	      1.67653802	      0.00000000	     23.73278348	      6.30053434	     -2.13246690	     15.40658927	      0.26889571	     11.62867847	      5.30003434	      0.00000000
     15.00666667	      0.34038918	      4.47606589	     -1.54154113	      2.26829252	      1.06246176	      1.01549548	    -15.70691837	     -7.04238777	     -5.86702059	     34.03829443	      0.59408031	    -18.75848402	      0.39172537	      0.00000000	     23.39057556	      6.55597332	     -2.23116659	     15.18625522	      0.26505015	     11.73608976	      5.81078134	      0.00000000
     15.01333333	      0.47686838	      4.57637620	     -1.86699867	      2.26866314	      1.06121527	      1.01579138	    -15.18481964	     -7.27866253	     -4.99017214	     36.13942107	      0.63075189	    -18.96503218	     -1.48823549	      0.00000000	     23.19120102	      6.59519238	     -2.69447532	     15.40577186	      0.26888144	     11.93559113	      6.42717182	      0.00000000
     15.02000000	      0.68425037	      4.73831870	     -2.15651100	      2.26907697	      1.05950076	      1.01615289	    -14.68193827	     -7.58472894	     -4.28602904	     38.35882536	      0.66948780	    -18.82201843	     -3.33586640	      0.00000000	     22.92710354	      6.69643286	     -3.19688615	     15.85783160	      0.27677137	     12.13911335	      6.75193941	      0.00000000
     15.02666667	      0.93227355	      4.90186532	     -2.42631304	      2.26947208	      1.05737662	      1.01654343	    -14.15524591	     -7.89756982	     -3.68471178	     40.67644715	      0.70993793	    -18.30350466	     -5.13099465	      0.00000000	     22.59257196	      6.79299101	     -3.74588054	     16.43460549	      0.28683798	     12.06012370	      6.66171693	      0.00000000
     15.03333333	      1.25781889	      5.14555023	     -2.67711861	      2.26993989	      1.05485544	      1.01698434	    -13.69251583	     -8.28176076	     -3.15078819	     43.00379321	      0.75055778	    -17.52901595	     -6.88004675	      0.00000000	     22.15828772	      6.97720632	     -4.30313070	     17.15685722	      0.29944365	     11.89984421	      6.36209613	      0.00000000
     15.04000000	      1.45610789	      5.22344400	     -2.83400946	      2.27027301	      1.05180608	      1.01738158	    -13.07350129	     -8.33767345	     -2.42241865	     45.31118441	      0.79082936	    -16.65480252	     -9.05686904	      0.00000000	     21.95358170	      6.96001584	     -4.94905343	     18.23441333	      0.31825055	     11.53835075	      6.10980748	      0.00000000
     15.04666667	      1.76661771	      5.39711286	     -2.96570447	      2.27068112	      1.04848626	      1.01773706	    -12.54385674	     -8.58580622	     -1.98305268	     47.63927411	      0.83146219	    -15.51092182	    -10.92310169	      0.00000000	     21.56496669	      7.06416960	     -5.57514715	     19.31406158	      0.33709397	     10.93080283	      5.57887281	      0.00000000
     15.05333333	      2.06163300	      5.60909722	     -3.04287601	      2.27105454	      1.04481354	      1.01801817	    -11.98300062	     -8.85096568	     -1.59689340	     49.93829330	      0.87158764	    -14.24412357	    -12.72155591	      0.00000000	     21.21237323	      7.23086487	     -6.11756633	     20.53714504	      0.35844080	     10.12048047	      4.84650863	      0.00000000
     15.06000000	      2.69282803	      5.83351728	     -2.88455606	      2.27150964	      1.04123660	      1.01797660	    -11.91130458	     -9.15633883	     -1.64833878	     52.02132286	      0.90794337	    -12.91660522	    -14.16527266	      0.00000000	     20.51907276	      7.52666698	     -6.41555158	     21.94626326	      0.38303455	      9.23206346	      4.26348335	      0.00000000
     15.06666667	      2.55604731	      6.10405461	     -2.95920134	      2.27155368	      1.03647592	      1.01820802	    -10.70669486	     -9.42962819	     -1.10591101	     54.44105943	      0.95017574	    -11.45390528	    -16.08762598	      0.00000000	     20.72385551	      7.77564690	     -6.74245411	     23.46436954	      0.40953051	      8.27095090	      2.70814569	      0.00000000
     15.07333333	      2.75825563	      6.40785777	     -2.80536635	      2.27161603	      1.03192637	      1.01807014	     -9.98264616	     -9.79298163	     -1.01473824	     56.64123816	      0.98857610	    -10.00212139	    -17.63484263	      0.00000000	     20.59981622	      8.22228355	     -6.67765953	     25.16170776	      0.43915465	      7.51254521	      1.19272451	      0.00000000
